<svg xmlns="http://www.w3.org/2000/svg" xmlns:xlink="http://www.w3.org/1999/xlink" width="130.723" height="128.142" viewBox="0 0 130.723 128.142">
<defs>
<style>.a{fill:url(#a);}.b{fill:url(#b);}.c{fill:url(#c);}.d{fill:url(#d);}.e{fill:url(#e);}.f{fill:url(#f);}.g{fill:url(#g);}.h{fill:url(#h);}.i{fill:url(#i);}.j{fill:url(#j);}.k{fill:url(#k);}.l{fill:url(#l);}</style>
<linearGradient id="a" x1="10.363" y1="0.465" x2="0.223" y2="0.5" gradientUnits="objectBoundingBox"><stop offset="0" stop-color="#cccccb"/><stop offset="1" stop-color="#fff"/></linearGradient>
<linearGradient id="b" x1="37.063" y1="0.47" x2="-5.911" y2="0.507" xlink:href="#a"/>
<linearGradient id="c" x1="6.833" y1="0.472" x2="-1.928" y2="0.508" xlink:href="#a"/>
<linearGradient id="d" x1="5.601" y1="0.481" x2="-3.702" y2="0.518" xlink:href="#a"/>
<linearGradient id="e" x1="4.014" y1="0.485" x2="-5.338" y2="0.521" xlink:href="#a"/>
<linearGradient id="f" x1="3.37" y1="0.493" x2="-9.805" y2="0.53" xlink:href="#a"/>
<linearGradient id="g" x1="1.18" y1="0.496" x2="-8.172" y2="0.532" xlink:href="#a"/>
<linearGradient id="h" x1="0.056" y1="1.156" x2="1.421" y2="-0.185" gradientUnits="objectBoundingBox"><stop offset="0" stop-color="#cb9831"/><stop offset="1" stop-color="#ca5d28"/></linearGradient>
<linearGradient id="i" x1="-0.039" y1="1.165" x2="0.923" y2="0.006" xlink:href="#h"/>
<linearGradient id="j" x1="0.024" y1="2.208" x2="1.832" y2="-3.311" xlink:href="#h"/>
<linearGradient id="k" x1="-0.689" y1="1.933" x2="13.292" y2="-14.912" xlink:href="#h"/>
<linearGradient id="l" x1="-8.375" y1="11.188" x2="5.606" y2="-5.658" xlink:href="#h"/>
</defs>
<g transform="translate(0.1)">

<g transform="translate(28.621)">
<path class="h" d="M80.15,100.44a1.572,1.572,0,0,1,.361.222c.289.592.578,1.109.867,1.7a5.32,5.32,0,0,0,5.417,3.032,5.1,5.1,0,0,0,4.622-3.993c.578-1.775,1.083-3.549,1.589-5.324.144-.592.433-1.257,1.083-1.109a2,2,0,0,1,1.156.887c.867,1.553,1.661,3.253,2.528,4.806a8.268,8.268,0,0,0,12.928,2.144c1.228-1.183,1.444-2.662.433-3.845s-2.383-1.183-3.683-.074c-1.95,1.627-4.117,1.183-5.344-1.109-.794-1.553-1.589-3.032-2.383-4.584a7.121,7.121,0,0,0-1.011-1.553,6.034,6.034,0,0,0-10.256,2.218c-.578,1.775-1.083,3.549-1.661,5.4a2.891,2.891,0,0,1-.433.813,6.407,6.407,0,0,1-.65-.813c-.217-.3-.361-.739-.578-1.035a5.333,5.333,0,0,0-8.811-.961c-1.083,1.257-2.167,2.514-3.106,3.845a3.635,3.635,0,0,0-.506,2.144,2.166,2.166,0,0,0,1.733,1.923,2.484,2.484,0,0,0,2.672-.887c.939-1.035,1.806-2.07,2.672-3.18A5.4,5.4,0,0,0,80.15,100.44ZM60,102.732a2.543,2.543,0,0,0,2.528,2.588,2.59,2.59,0,0,0,2.528-2.588,2.528,2.528,0,1,0-5.056,0ZM87.372,45.575a2.54,2.54,0,0,0,2.6-2.514A2.5,2.5,0,0,0,87.517,40.4a2.536,2.536,0,0,0-2.6,2.514A2.594,2.594,0,0,0,87.372,45.575Z" transform="translate(-45.315 -10.526)"/>
<path class="i" d="M86.924,0a25.411,25.411,0,0,1,2.167,1.775c7.656,7.838,15.311,15.6,22.895,23.44a3.992,3.992,0,0,1,1.083,1.7,2.375,2.375,0,0,1-1.3,2.81,2.291,2.291,0,0,1-2.961-.444l-4.767-4.88a3.516,3.516,0,0,1-.506-.887c-.144.074-.289.074-.433.148-.506,1.775-1.156,3.623-1.589,5.4a36.9,36.9,0,0,0-.433,11.609c.361,3.623.867,7.246,1.3,10.87.217,1.627-.433,2.588-2.094,3.18L56.519,70.245c-3.9,1.4-7.872,2.81-11.772,4.141a13.514,13.514,0,0,0-1.517.665,2.488,2.488,0,0,1-3.106-.961,2.651,2.651,0,0,1,.361-3.4C46.047,65.069,51.535,59.45,57.1,53.83c5.344-5.472,10.689-10.943,16.033-16.341,1.228-1.257,2.672-1.331,3.756-.222a2.571,2.571,0,0,1,.144,3.475,6.9,6.9,0,0,1-.722.739c-7.8,8.134-15.6,16.046-23.328,24.031a2.664,2.664,0,0,0-.578.887c1.156-.37,2.311-.813,3.467-1.183C69.374,60.411,82.808,55.6,96.313,50.872c.722-.3,1.011-.518.867-1.4A85.8,85.8,0,0,1,96.024,35.2,33.821,33.821,0,0,1,99.347,20.63.961.961,0,0,0,99.13,19.3c-1.517-1.479-3.033-3.032-4.478-4.584a1.118,1.118,0,0,0-1.517-.3,36.081,36.081,0,0,1-16.611,3.623c-3.756-.148-7.439-.739-11.122-1.183-.867-.148-1.3,0-1.589.961Q58.18,34.79,52.4,51.834c-.578,1.627-1.444,2.366-2.672,2.292-1.878-.074-2.889-1.775-2.311-3.7,1.083-3.18,2.167-6.433,3.25-9.613,3.033-9.095,6.139-18.19,9.172-27.285.65-2,1.517-2.514,3.539-2.218,3.25.444,6.428,1.035,9.678,1.331A33.293,33.293,0,0,0,89.38,10.426a4.449,4.449,0,0,0,.867-.444c-.794-.739-1.517-1.257-2.167-1.923C87,7.025,85.913,5.915,84.9,4.806,83.313,3.18,83.674,1.257,85.7.3c.072-.074.144-.148.217-.148A2.247,2.247,0,0,1,86.924,0Z" transform="translate(-39.668)"/>
<path class="j" d="M85.006,117.839a8.129,8.129,0,0,1-.433.813c-.867,1.035-1.733,2.144-2.672,3.18a2.484,2.484,0,0,1-2.672.887,2.254,2.254,0,0,1-1.733-1.923A3.635,3.635,0,0,1,78,118.653c.939-1.331,2.022-2.588,3.106-3.845a5.3,5.3,0,0,1,8.811.961c.217.37.361.739.578,1.035s.433.518.65.813a4.451,4.451,0,0,0,.433-.813c.578-1.775,1.083-3.623,1.661-5.4a6.045,6.045,0,0,1,10.256-2.218,5.71,5.71,0,0,1,1.011,1.553c.794,1.553,1.589,3.032,2.383,4.584,1.228,2.292,3.394,2.736,5.344,1.109,1.3-1.109,2.672-1.109,3.683.074a2.6,2.6,0,0,1-.433,3.845,8.268,8.268,0,0,1-12.928-2.144c-.867-1.553-1.661-3.253-2.528-4.806a1.55,1.55,0,0,0-1.156-.887c-.65-.074-.939.518-1.083,1.109-.506,1.775-1.083,3.549-1.589,5.324a5.276,5.276,0,0,1-4.622,3.993,5.377,5.377,0,0,1-5.417-3.032c-.289-.592-.578-1.109-.867-1.7C85.295,117.987,85.15,117.913,85.006,117.839Z" transform="translate(-50.171 -27.925)"/>
<path class="k" d="M60,123.788a2.528,2.528,0,1,1,5.056,0,2.59,2.59,0,0,1-2.528,2.588A2.542,2.542,0,0,1,60,123.788Z" transform="translate(-45.315 -31.582)"/>
<path class="l" d="M96.956,45.576A2.549,2.549,0,0,1,94.5,42.914,2.637,2.637,0,0,1,97.1,40.4a2.59,2.59,0,0,1-.144,5.176Z" transform="translate(-54.899 -10.527)"/>
</g></g></svg>