<?xml version="1.0" encoding="utf-8"?>
<!-- Generator: Adobe Illustrator 22.1.0, SVG Export Plug-In . SVG Version: 6.00 Build 0)  -->
<svg version="1.1" id="Layer_3" xmlns="http://www.w3.org/2000/svg" xmlns:xlink="http://www.w3.org/1999/xlink" x="0px" y="0px"
	 viewBox="0 0 545.7 523" style="enable-background:new 0 0 545.7 523;" xml:space="preserve">
<style type="text/css">
	.st0{clip-path:url(#SVGID_2_);fill:#F4F4F4;}
	.st1{clip-path:url(#SVGID_2_);fill:#CB9831;}
	.st2{clip-path:url(#SVGID_2_);fill:url(#SVGID_3_);}
	.st3{clip-path:url(#SVGID_2_);fill:#1A1B4C;}
	.st4{clip-path:url(#SVGID_2_);fill:url(#SVGID_4_);}
	.st5{clip-path:url(#SVGID_2_);}
	.st6{fill:#00C8B6;}
	.st7{fill:#BAF4EE;}
	.st8{opacity:0.73;fill:#7FD6CB;}
	.st9{fill:#FFB031;}
	.st10{fill:#FF9433;}
	.st11{fill:#FF7733;}
	.st12{fill:#00C8B7;}
	.st13{fill:#7A4C08;}
	.st14{fill:#FFFFFF;}
	.st15{fill:#E6E8E8;}
	.st16{fill:#82EBE3;}
	.st17{fill:#D9DBDB;}
	.st18{fill:#08B29D;}
	.st19{opacity:0.25;clip-path:url(#SVGID_6_);}
	.st20{opacity:0.5;fill:none;stroke:#474747;stroke-miterlimit:10;}
</style>
<g>
	<defs>
		<rect id="SVGID_1_" width="543.8" height="523"/>
	</defs>
	<clipPath id="SVGID_2_">
		<use xlink:href="#SVGID_1_"  style="overflow:visible;"/>
	</clipPath>
	<path class="st0" d="M608.7,9c0,36.4-29.5,66-66,66s-66-29.5-66-66s29.5-66,66-66S608.7-27.4,608.7,9z M545.4-40.9
		c-27.6-1.5-51.1,19.7-52.6,47.3C491.3,34,512.5,57.5,540.1,59c27.6,1.5,51.1-19.7,52.6-47.3C594.2-15.9,573-39.4,545.4-40.9z"/>
	<path class="st0" d="M620.8,440.7c0,42.7-34.6,77.4-77.4,77.4S466,483.4,466,440.7s34.6-77.4,77.4-77.4S620.8,397.9,620.8,440.7z
		 M546.5,382.1c-32.4-1.7-60,23.1-61.7,55.5c-1.7,32.4,23.1,60,55.5,61.7c32.4,1.7,60-23.1,61.7-55.5
		C603.7,411.4,578.9,383.8,546.5,382.1z"/>
	<ellipse class="st1" cx="95.2" cy="212.5" rx="239.4" ry="234.2"/>
	
		<linearGradient id="SVGID_3_" gradientUnits="userSpaceOnUse" x1="-117.3397" y1="239.312" x2="312.3994" y2="239.312" gradientTransform="matrix(-5.627010e-02 0.9984 -0.9984 -5.627010e-02 361.2798 113.4812)">
		<stop  offset="0" style="stop-color:#111235"/>
		<stop  offset="1" style="stop-color:#33348B"/>
	</linearGradient>
	<path class="st2" d="M104.8,411.9C-10.9,405.4-99.2,304.1-92.5,185.6C-85.8,67.1,13.3-23.7,128.9-17.1S332.9,90.7,326.2,209.2
		S220.4,418.4,104.8,411.9z"/>
	<circle class="st3" cx="392.8" cy="72.7" r="31.1"/>
	<circle class="st1" cx="311.6" cy="410.8" r="20.2"/>
	<linearGradient id="SVGID_4_" gradientUnits="userSpaceOnUse" x1="308.1675" y1="359.0695" x2="607.9049" y2="239.5676">
		<stop  offset="0" style="stop-color:#33348B"/>
		<stop  offset="1" style="stop-color:#111235"/>
	</linearGradient>
	<ellipse class="st4" cx="447.4" cy="303.6" rx="161.3" ry="156"/>
	<g class="st5">
		<ellipse class="st6" cx="447.4" cy="273.4" rx="161.3" ry="156"/>
		<g>
			<g>
				<g>
					<g>
						
							<ellipse transform="matrix(0.7071 -0.7071 0.7071 0.7071 -72.2156 394.9899)" class="st7" cx="440.7" cy="284.7" rx="76.7" ry="76.7"/>
						<path class="st8" d="M503.3,303.1v25.8c-2.8,4-6,7.7-9.5,11.1v-36.9h0V303c0-0.2-4.7-4-8.2-6.9v-1.6l4.3-1.1
							c1.8-0.5,3.6-0.3,5.3,0.4c0.7,0.3,1.5,0.6,2.3,0.9v3.4C501,300.9,503.3,302.8,503.3,303.1L503.3,303.1L503.3,303.1z"/>
					</g>
					<g>
						<g>
							<polygon class="st9" points="331.5,186.3 354,239.1 370.5,227.8 380,241.7 381.7,218.3 401.7,206.2 							"/>
							<polygon class="st10" points="374.1,225.3 354,239.1 370.5,227.8 380,241.7 381.7,218.3 350,199.4 							"/>
							<polygon class="st11" points="381.3,224 350,199.4 381.7,218.3 							"/>
						</g>
						<g>
							<path class="st12" d="M380.4,248.3c-0.2-1-0.4-2.1-0.7-3.1l1.5-0.4c0.3,1,0.5,2.1,0.7,3.2L380.4,248.3z"/>
							<path class="st12" d="M361.8,284.1c-2.3-0.2-4.5-0.9-6.4-2.1l0.9-1.3c1.6,1.1,3.6,1.7,5.6,1.9L361.8,284.1z M368.4,282.8
								l-0.7-1.4c1.7-0.8,3.3-2.1,4.8-3.8l1.2,1.1C372,280.5,370.3,281.9,368.4,282.8z M350.9,276.9c-0.9-1.8-1.4-3.8-1.4-5.8
								c0-0.2,0-0.3,0-0.5l0-0.3l1.6,0.1l0,0.3c0,0.1,0,0.3,0,0.4c0,1.7,0.4,3.5,1.2,5.1L350.9,276.9z M412.7,276.5l0-1.6
								c2.1,0,4.2-0.1,6.4-0.3l0.1,1.6C417,276.4,414.9,276.5,412.7,276.5z M406.3,276.3l-1-0.1c-2-0.2-3.7-0.4-5.4-0.7l0.3-1.6
								c1.7,0.3,3.4,0.5,5.3,0.7l1,0.1L406.3,276.3z M425.6,275.6l-0.2-1.6c2.1-0.3,4.2-0.6,6.3-1l0.3,1.6
								C429.9,274.9,427.7,275.3,425.6,275.6z M393.5,274c-1.9-0.6-3.6-1.4-5.2-2.3c-0.3-0.1-0.5-0.3-0.7-0.4l0.8-1.4
								c0.2,0.1,0.5,0.3,0.7,0.4c1.5,0.9,3.2,1.6,5,2.2L393.5,274z M377.5,273.3l-1.4-0.8c1-1.8,1.9-3.7,2.6-5.7l1.5,0.5
								C379.5,269.4,378.6,271.5,377.5,273.3z M438.3,273.2l-0.4-1.6c2-0.5,4.1-1,6.2-1.6l0.4,1.5
								C442.5,272.1,440.4,272.7,438.3,273.2z M450.8,269.6l-0.5-1.5c2-0.7,4.1-1.3,6.1-2.1l0.5,1.5
								C454.8,268.3,452.8,269,450.8,269.6z M382.1,267.5c-1.5-1.1-3-2.2-4.8-3.1l-0.5-0.3l0.7-1.4c0.2,0.1,0.4,0.2,0.6,0.3
								c1.8,1,3.5,2.2,4.9,3.2L382.1,267.5z M353.4,265.1l-1.1-1.1c1.4-1.4,3.3-2.4,5.9-3.2l0.5,1.5
								C356.4,263,354.6,263.9,353.4,265.1z M371,262c-1.8-0.4-3.7-0.6-5.5-0.6l-0.6,0l0-1.6c2.2-0.1,4.4,0.2,6.6,0.6L371,262z
								 M381.9,261.1l-1.6-0.3c0.4-2.1,0.6-4.2,0.6-6.3l1.6,0C382.5,256.7,382.3,258.9,381.9,261.1z"/>
							<path class="st12" d="M463,265.3l-0.6-1.5c1-0.4,2-0.8,3-1.2l0.6,1.5C465,264.5,464,264.9,463,265.3z"/>
						</g>
						<path class="st12" d="M513.3,304.2c-0.8,0-1.5-0.6-1.6-1.4c-0.1-0.9,0.6-1.7,1.4-1.7c9.7-0.9,18.5-5.5,25-13
							c0.6-0.7,1.6-0.7,2.3-0.2c0.7,0.6,0.7,1.6,0.2,2.3c-7,8.1-16.6,13-27.1,14.1C513.4,304.2,513.3,304.2,513.3,304.2z"/>
						<g>
							<g>
								<path class="st13" d="M493.8,303.1l-55.7,32.8l-55.7-32.8c0,0,0-0.1,0-0.1c0-0.2,3.1-2.8,7.8-6.6c0,0,0.1-0.1,0.1-0.1
									c15.4-12.5,47.7-38,47.7-38s32.3,25.6,47.7,38C490.6,300.2,493.7,302.8,493.8,303.1C493.8,303,493.8,303.1,493.8,303.1z"/>
								<g>
									<path class="st14" d="M461,231.1h-60c-5.2,0-9.3,4.2-9.3,9.3v90.8c0,5.2,4.2,9.3,9.3,9.3h75.2c5.2,0,9.3-4.2,9.3-9.3v-75.6
										L461,231.1z"/>
									<path class="st15" d="M461,246.3c0,5.2,4.2,9.3,9.3,9.3h15.2L461,231.1V246.3z"/>
									<path class="st16" d="M430.5,246.5h-22c-1.5,0-2.7,1.2-2.7,2.7v22c0,1.5,1.2,2.7,2.7,2.7h22c1.5,0,2.7-1.2,2.7-2.7v-22
										C433.2,247.7,432,246.5,430.5,246.5z"/>
									<path class="st17" d="M458.3,281.4h-49.7c-1.5,0-2.7,1.2-2.7,2.7l0,0c0,1.5,1.2,2.7,2.7,2.7h49.7c1.5,0,2.7-1.2,2.7-2.7
										l0,0C461,282.6,459.8,281.4,458.3,281.4z"/>
									<path class="st17" d="M458.3,294.8h-49.7c-1.5,0-2.7,1.2-2.7,2.7l0,0c0,1.5,1.2,2.7,2.7,2.7h49.7c1.5,0,2.7-1.2,2.7-2.7
										l0,0C461,296,459.8,294.8,458.3,294.8z"/>
									<path class="st17" d="M435.7,307.7h-27.1c-1.5,0-2.7,1.2-2.7,2.7l0,0c0,1.5,1.2,2.7,2.7,2.7h27.1c1.5,0,2.7-1.2,2.7-2.7
										l0,0C438.4,308.9,437.2,307.7,435.7,307.7z"/>
								</g>
								<g>
									<path class="st9" d="M493.8,303.1v53.4c0,3.7-3.1,6.8-6.8,6.8h-97.8c-3.7,0-6.8-3.1-6.8-6.8v-53.4l55.7,32.8L493.8,303.1z"
										/>
									<path class="st10" d="M491.9,361.1l-35.8-35.8l-18,10.6l-18-10.6l-35.8,35.8c1.2,1.3,3,2.1,4.9,2.1H487
										C488.9,363.3,490.7,362.5,491.9,361.1z"/>
								</g>
							</g>
						</g>
						<g>
							<g>
								<path class="st12" d="M505,229.8c-16,1.6-28.8,14.8-30,30.8c-0.6,8,1.7,15.4,5.9,21.4c1.6,2.3,1.8,5.2,0.8,7.7l-2.6,6.4
									l10.8-2.8c1.8-0.5,3.6-0.3,5.3,0.4c5,2.2,10.6,3.2,16.6,2.6c15.7-1.5,28.4-14.2,30-29.9C543.7,245.3,526.1,227.7,505,229.8z
									"/>
								<g>
									<path class="st14" d="M509.3,280l1.8-1.8c0,0-1.5-3.4,4.7-9.2c3.6-3.5,4.5-6.8,4.2-9.5c-0.5-4.4-4-7.9-8.4-8.4
										c-2.7-0.3-6.1,0.5-9.5,4.2c-5.8,6.1-9.2,4.7-9.2,4.7l-1.8,1.8L509.3,280z"/>
									<path class="st14" d="M495.1,268.7c-1.5,2-1.3,4.8,0.5,6.6c1.8,1.8,4.6,2,6.6,0.5L495.1,268.7z"/>
									<path class="st14" d="M521.2,253.2l-1.1,1.1c-0.9-1.4-2.1-2.6-3.5-3.5l1.2-1.2c1-1,2.6-1,3.5,0
										C522.2,250.7,522.2,252.2,521.2,253.2z"/>
								</g>
							</g>
							<path class="st18" d="M507.5,229.7c11.9,3.6,20.6,14.6,20.6,27.7c0,16-12.9,28.9-28.9,28.9c-8.4,0-15.9-3.6-21.2-9.3
								c0.8,1.8,1.8,3.6,2.9,5.2c1.6,2.3,1.8,5.2,0.8,7.7l-2.6,6.4l10.8-2.8c1.8-0.5,3.6-0.3,5.3,0.4c5,2.2,10.6,3.2,16.6,2.6
								c15.7-1.5,28.4-14.2,30-29.9C543.7,246.1,527.5,229.1,507.5,229.7z"/>
						</g>
						<path class="st9" d="M333.4,201.9l7.3,16.8c0.4,0.9,0,1.8-0.9,2.2l-0.3,0.1c-0.9,0.4-1.9,0-2.2-0.9l-7-16.9
							c-0.4-0.9,0.1-1.9,1-2.2l0,0C332.2,200.7,333.1,201.1,333.4,201.9z"/>
					</g>
				</g>
				<g>
					<path class="st7" d="M362,319.8c-3,0-5.4,2.4-5.4,5.4s2.4,5.4,5.4,5.4c3,0,5.4-2.4,5.4-5.4S365,319.8,362,319.8z M362,327.4
						c-1.2,0-2.2-1-2.2-2.2c0-1.2,1-2.2,2.2-2.2c1.2,0,2.2,1,2.2,2.2C364.2,326.4,363.2,327.4,362,327.4z"/>
					<path class="st7" d="M505.9,341.5c-3,0-5.4,2.4-5.4,5.4c0,3,2.4,5.4,5.4,5.4c3,0,5.4-2.4,5.4-5.4
						C511.2,343.9,508.8,341.5,505.9,341.5z M505.9,349.1c-1.2,0-2.2-1-2.2-2.2c0-1.2,1-2.2,2.2-2.2c1.2,0,2.2,1,2.2,2.2
						C508,348.1,507.1,349.1,505.9,349.1z"/>
					<path class="st7" d="M549.8,258.2c-2.3,0-4.1,1.8-4.1,4.1c0,2.3,1.8,4.1,4.1,4.1c2.3,0,4.1-1.8,4.1-4.1
						C553.9,260,552,258.2,549.8,258.2z M549.8,263.9c-0.9,0-1.7-0.7-1.7-1.7c0-0.9,0.7-1.7,1.7-1.7s1.7,0.7,1.7,1.7
						C551.4,263.2,550.7,263.9,549.8,263.9z"/>
					<path class="st7" d="M477.4,192.4c-2.4,0-4.3,1.9-4.3,4.3c0,2.4,1.9,4.3,4.3,4.3c2.4,0,4.3-1.9,4.3-4.3
						C481.8,194.4,479.8,192.4,477.4,192.4z M477.4,198.5c-1,0-1.8-0.8-1.8-1.8c0-1,0.8-1.8,1.8-1.8c1,0,1.8,0.8,1.8,1.8
						C479.2,197.8,478.4,198.5,477.4,198.5z"/>
					<path class="st7" d="M338.4,293.7c-2.5,0-4.6,2-4.6,4.6c0,2.5,2,4.6,4.6,4.6c2.5,0,4.6-2,4.6-4.6
						C343,295.7,341,293.7,338.4,293.7z"/>
					<path class="st7" d="M521.7,308.8c-1.8,0-3.3,1.5-3.3,3.3s1.5,3.3,3.3,3.3c1.8,0,3.3-1.5,3.3-3.3S523.5,308.8,521.7,308.8z"/>
					<path class="st7" d="M411.7,193.8c-2.7,0-4.9,2.2-4.9,4.9c0,2.7,2.2,4.9,4.9,4.9s4.9-2.2,4.9-4.9
						C416.5,196,414.4,193.8,411.7,193.8z"/>
					<path class="st7" d="M437.7,369.7c-2,0-3.5,1.6-3.5,3.5c0,2,1.6,3.5,3.5,3.5c2,0,3.5-1.6,3.5-3.5
						C441.2,371.3,439.6,369.7,437.7,369.7z"/>
					<path class="st7" d="M506.2,212.5c-2.3,0-4.2,1.9-4.2,4.2c0,2.3,1.9,4.2,4.2,4.2c2.3,0,4.2-1.9,4.2-4.2
						C510.3,214.4,508.5,212.5,506.2,212.5z"/>
					<circle class="st7" cx="359.1" cy="247.2" r="2.4"/>
					<path class="st7" d="M551.2,237.5c-2.2,0-4,1.8-4,4c0,2.2,1.8,4,4,4c2.2,0,4-1.8,4-4C555.2,239.3,553.4,237.5,551.2,237.5z"/>
					<circle class="st7" cx="336.2" cy="261.4" r="2.6"/>
					<path class="st7" d="M444.3,185.2l1.6-1.6c0.6-0.6,0.6-1.5,0-2c-0.6-0.6-1.5-0.6-2,0l-1.6,1.6l-1.6-1.6c-0.6-0.6-1.5-0.6-2,0
						c-0.6,0.6-0.6,1.5,0,2l1.6,1.6l-1.6,1.6c-0.6,0.6-0.6,1.5,0,2c0.6,0.6,1.5,0.6,2,0l1.6-1.6l1.6,1.6c0.6,0.6,1.5,0.6,2,0
						c0.6-0.6,0.6-1.5,0-2L444.3,185.2z"/>
					<path class="st7" d="M334.3,234l1.6-1.6c0.6-0.6,0.6-1.5,0-2c-0.6-0.6-1.5-0.6-2,0l-1.6,1.6l-1.6-1.6c-0.6-0.6-1.5-0.6-2,0
						c-0.6,0.6-0.6,1.5,0,2l1.6,1.6l-1.6,1.6c-0.6,0.6-0.6,1.5,0,2c0.6,0.6,1.5,0.6,2,0l1.6-1.6l1.6,1.6c0.6,0.6,1.5,0.6,2,0
						c0.6-0.6,0.6-1.5,0-2L334.3,234z"/>
					<path class="st7" d="M525,332.7l1.4-1.4c0.5-0.5,0.5-1.3,0-1.7c-0.5-0.5-1.3-0.5-1.7,0l-1.4,1.4l-1.4-1.4
						c-0.5-0.5-1.3-0.5-1.7,0c-0.5,0.5-0.5,1.3,0,1.7l1.4,1.4l-1.4,1.4c-0.5,0.5-0.5,1.3,0,1.7c0.5,0.5,1.3,0.5,1.7,0l1.4-1.4
						l1.4,1.4c0.5,0.5,1.3,0.5,1.7,0c0.5-0.5,0.5-1.3,0-1.7L525,332.7z"/>
				</g>
			</g>
		</g>
		<g>
			<defs>
				<ellipse id="SVGID_5_" cx="447.4" cy="273.4" rx="161.3" ry="156"/>
			</defs>
			<clipPath id="SVGID_6_">
				<use xlink:href="#SVGID_5_"  style="overflow:visible;"/>
			</clipPath>
			<g class="st19">
				<g>
					<line class="st20" x1="301.6" y1="112.1" x2="301.6" y2="433.5"/>
					<line class="st20" x1="318.5" y1="112.1" x2="318.5" y2="433.5"/>
					<line class="st20" x1="337.4" y1="112.1" x2="337.4" y2="433.5"/>
					<line class="st20" x1="356.2" y1="112.1" x2="356.2" y2="433.5"/>
					<line class="st20" x1="375.1" y1="112.1" x2="375.1" y2="433.5"/>
					<line class="st20" x1="393.9" y1="112.1" x2="393.9" y2="433.5"/>
					<line class="st20" x1="412.8" y1="112.1" x2="412.8" y2="433.5"/>
					<line class="st20" x1="431.6" y1="112.1" x2="431.6" y2="433.5"/>
					<line class="st20" x1="450.5" y1="112.1" x2="450.5" y2="433.5"/>
					<line class="st20" x1="469.3" y1="112.1" x2="469.3" y2="433.5"/>
					<line class="st20" x1="488.2" y1="112.1" x2="488.2" y2="433.5"/>
					<line class="st20" x1="507" y1="112.1" x2="507" y2="433.5"/>
					<line class="st20" x1="525.9" y1="112.1" x2="525.9" y2="433.5"/>
				</g>
				<g>
					<line class="st20" x1="556" y1="130.5" x2="272.1" y2="130.5"/>
					<line class="st20" x1="556" y1="147.4" x2="272.1" y2="147.4"/>
					<line class="st20" x1="556" y1="166.3" x2="272.1" y2="166.3"/>
					<line class="st20" x1="556" y1="185.1" x2="272.1" y2="185.1"/>
					<line class="st20" x1="556" y1="204" x2="272.1" y2="204"/>
					<line class="st20" x1="556" y1="222.8" x2="272.1" y2="222.8"/>
					<line class="st20" x1="556" y1="241.7" x2="272.1" y2="241.7"/>
					<line class="st20" x1="556" y1="260.5" x2="272.1" y2="260.5"/>
					<line class="st20" x1="556" y1="279.4" x2="272.1" y2="279.4"/>
					<line class="st20" x1="556" y1="298.2" x2="272.1" y2="298.2"/>
					<line class="st20" x1="556" y1="317.1" x2="272.1" y2="317.1"/>
					<line class="st20" x1="556" y1="335.9" x2="272.1" y2="335.9"/>
					<line class="st20" x1="556" y1="354.8" x2="272.1" y2="354.8"/>
					<line class="st20" x1="556" y1="373.6" x2="272.1" y2="373.6"/>
					<line class="st20" x1="556" y1="392.5" x2="272.1" y2="392.5"/>
					<line class="st20" x1="556" y1="411.3" x2="272.1" y2="411.3"/>
				</g>
			</g>
		</g>
	</g>
</g>
</svg>
